<svg xmlns="http://www.w3.org/2000/svg" fill="none" viewBox="0 0 121 33">
    <path fill="#E20613" d="M22.395 27.537 14.74 32.69a1.8 1.8 0 0 1-2.008.01l-7.84-5.174A10.88 10.88 0 0 1 0 18.442V5.912a3.635 3.635 0 0 1 2.688-3.504L9.858.496c2.446-.65 5.027-.65 7.472 0l7.17 1.912a3.624 3.624 0 0 1 2.689 3.504V18.51a10.87 10.87 0 0 1-4.794 9.027">
    </path>
    <path fill="#fff" d="M19.94 11.055H7.248c-1 0-1.814-.815-1.814-1.815s.815-1.815 1.814-1.815H19.94c1 0 1.814.815 1.814 1.815 0 1.01-.805 1.815-1.814 1.815m-6.346 3.63c0-1-.815-1.815-1.814-1.815H7.248c-1 0-1.814.815-1.814 1.815S6.249 16.5 7.248 16.5h4.532c1.009 0 1.814-.815 1.814-1.815M9.063 20.13c0-1-.815-1.815-1.815-1.815s-1.814.815-1.814 1.815.815 1.815 1.814 1.815c1.01 0 1.815-.815 1.815-1.815">
    </path>
</svg>